# xmcd CD database file
#
# Track frame offsets:
#	150
#	15850
#	30003
#	49267
#	66432
#	82740
#	98540
#	113067
#	127890
#	144899
#
# Disc length: 2148 seconds
#
# Revision: 0
# Processed by: cddbd v1.5.1PL2 Copyright (c) Steve Scherf et al.
# Submitted via: CDex 1.40Beta8
#
DISCID=6508620a
DTITLE=Mike Bezanson - The Easy Life
DYEAR=2005
DGENRE=Country
TTITLE0=You And Me
TTITLE1=Let Me Know
TTITLE2=He Did Last Night
TTITLE3=Grand John Song
TTITLE4=She's Been Alone
TTITLE5=Holdin' On
TTITLE6=Home Is Where My Heart Is
TTITLE7=Little Girl
TTITLE8=My Life At Seventeen
TTITLE9=The Easy Life
EXTD=YEAR: 2005 ID3G: 2
EXTT0=
EXTT1=
EXTT2=
EXTT3=
EXTT4=
EXTT5=
EXTT6=
EXTT7=
EXTT8=
EXTT9=
PLAYORDER=
